<?xml version="1.0" standalone="no"?>
<!DOCTYPE svg PUBLIC "-//W3C//DTD SVG 20010904//EN"
 "http://www.w3.org/TR/2001/REC-SVG-20010904/DTD/svg10.dtd">
<svg version="1.0" xmlns="http://www.w3.org/2000/svg"
 width="700.000000pt" height="700.000000pt" viewBox="0 0 700.000000 700.000000"
 preserveAspectRatio="xMidYMid meet">
<metadata>
Created by potrace 1.14, written by Peter Selinger 2001-2017
</metadata>
<g transform="translate(0.000000,700.000000) scale(0.100000,-0.100000)"
fill="#000000" stroke="none">
<path d="M3937 6298 c-5 -22 -193 -647 -221 -738 -8 -25 -40 -130 -70 -233
-31 -103 -58 -192 -61 -198 -6 -9 -35 12 -35 25 0 5 -19 30 -45 60 -6 6 -35
45 -65 86 -30 41 -57 77 -60 80 -3 3 -30 38 -59 78 -29 40 -55 72 -56 70 -1
-2 -30 -82 -64 -178 -34 -96 -68 -191 -76 -210 -7 -19 -38 -105 -69 -190 -30
-85 -86 -243 -125 -350 -38 -107 -102 -285 -141 -395 -39 -110 -77 -216 -85
-235 -8 -19 -91 -251 -186 -515 -94 -264 -202 -568 -241 -675 -38 -107 -108
-301 -154 -430 -46 -129 -95 -264 -108 -300 -35 -93 -151 -419 -242 -677 l-79
-223 -387 0 -388 0 0 -140 0 -140 483 0 483 0 78 218 c43 119 118 327 167 462
48 135 117 328 154 430 36 102 90 253 120 335 191 530 421 1171 442 1230 13
39 35 99 48 135 13 36 42 115 63 175 22 61 43 118 47 127 5 13 41 -30 143
-167 76 -101 142 -184 147 -185 6 0 33 24 62 53 28 28 78 78 111 111 l60 58
167 -166 166 -167 22 28 c12 15 56 66 97 114 41 47 84 97 95 110 43 53 131
155 141 164 5 6 35 39 65 75 30 36 59 70 64 76 6 6 32 37 59 68 35 39 52 53
57 44 4 -7 111 -285 239 -618 128 -333 248 -645 267 -695 19 -49 121 -315 226
-590 l192 -500 262 0 c172 -1 264 3 266 10 1 5 2 66 2 135 l-1 125 -170 3
-169 2 -53 143 c-30 78 -60 156 -67 172 -7 17 -45 116 -85 220 -40 105 -128
334 -195 510 -393 1022 -485 1264 -485 1269 0 3 -9 25 -19 49 -11 23 -40 96
-64 162 -67 177 -416 1087 -426 1110 -5 11 -60 153 -121 315 -62 162 -113 296
-115 298 -1 2 -5 -7 -8 -20z m203 -1259 c83 -217 155 -403 159 -414 5 -11 17
-42 27 -68 16 -46 16 -48 -3 -70 -11 -12 -122 -142 -248 -290 -191 -224 -230
-265 -243 -255 -8 7 -79 77 -158 156 -129 129 -146 143 -161 131 -9 -8 -54
-51 -99 -96 -45 -46 -86 -83 -90 -82 -5 0 -52 59 -105 131 l-96 130 37 107
c190 535 191 537 204 520 6 -8 80 -106 165 -219 84 -113 155 -206 156 -208 3
-3 32 89 118 378 14 47 45 146 67 220 23 74 47 155 54 180 44 155 50 170 57
157 5 -7 76 -191 159 -408z"/>
</g>
</svg>
