<svg width="84" height="31" viewBox="0 0 84 31" fill="none" xmlns="http://www.w3.org/2000/svg">
<path fill-rule="evenodd" clip-rule="evenodd" d="M83.5504 25.7869L72.9292 0.795959L70.9614 7.35539L69.2595 5.0862L60.665 29.0281H56.5725V30.796H61.9087L67.9547 13.9537L69.4414 15.936L70.7156 14.6618L72.5334 16.4796L75.9699 12.4704L81.6295 25.7869H83.5504ZM69.6327 13.2446L68.67 11.961L69.8145 8.77268L71.6484 11.2179L73.2164 5.99135L75.1981 10.6543L72.4336 13.8796L70.7156 12.1616L69.6327 13.2446Z" fill="black"/>
<path fill-rule="evenodd" clip-rule="evenodd" d="M1.76789 30.796H0V29.0281H1.76789V30.796ZM8.83945 30.796H5.30367V29.0281H8.83945V30.796ZM15.911 30.796H12.3752V29.0281H15.911V30.796ZM22.9826 30.796H19.4468V29.0281H22.9826V30.796ZM30.0541 30.796H26.5184V29.0281H30.0541V30.796ZM37.1257 30.796H33.5899V29.0281H37.1257V30.796ZM44.1973 30.796H40.6615V29.0281H44.1973V30.796ZM51.2688 30.796H47.733V29.0281H51.2688V30.796ZM56.5725 30.796H54.8046V29.0281H56.5725V30.796Z" fill="black"/>
<path d="M5.14338 25.9354C4.16751 25.9354 3.29063 25.7657 2.51276 25.4262C1.74903 25.0727 1.14795 24.5918 0.709514 23.9836C0.271078 23.3614 0.0447877 22.6471 0.0306446 21.841H2.08847C2.15918 22.534 2.44205 23.1209 2.93706 23.6018C3.44621 24.0685 4.18165 24.3019 5.14338 24.3019C6.06269 24.3019 6.78399 24.0756 7.30728 23.623C7.84472 23.1563 8.11344 22.5623 8.11344 21.841C8.11344 21.2752 7.95787 20.8156 7.64672 20.462C7.33557 20.1084 6.94663 19.8397 6.47991 19.6559C6.01319 19.472 5.38382 19.274 4.5918 19.0618C3.61593 18.8073 2.83098 18.5527 2.23697 18.2981C1.6571 18.0435 1.15502 17.6475 0.730729 17.1101C0.320579 16.5585 0.115503 15.8231 0.115503 14.9038C0.115503 14.0976 0.320579 13.3834 0.730729 12.7611C1.14088 12.1388 1.71368 11.6579 2.44912 11.3185C3.1987 10.979 4.05436 10.8093 5.0161 10.8093C6.40212 10.8093 7.53357 11.1558 8.41045 11.8488C9.30146 12.5419 9.80354 13.4612 9.91669 14.6068H7.79522C7.7245 14.041 7.4275 13.546 6.9042 13.1217C6.38091 12.6833 5.68789 12.4641 4.82516 12.4641C4.01901 12.4641 3.36135 12.6762 2.8522 13.1005C2.34305 13.5107 2.08847 14.0905 2.08847 14.8401C2.08847 15.3776 2.23697 15.816 2.53398 16.1554C2.84513 16.4949 3.21992 16.7565 3.65836 16.9404C4.11094 17.1101 4.7403 17.3081 5.54646 17.5344C6.52234 17.8031 7.30728 18.0718 7.90129 18.3405C8.4953 18.5951 9.00446 18.9982 9.42875 19.5498C9.85304 20.0872 10.0652 20.8227 10.0652 21.7561C10.0652 22.4774 9.87426 23.1563 9.4924 23.7927C9.11053 24.4292 8.54481 24.9454 7.79522 25.3414C7.04563 25.7374 6.16169 25.9354 5.14338 25.9354Z" fill="black"/>
<path d="M24.2984 11.0003V25.7869H22.3679V19.0831H14.8367V25.7869H12.9061V11.0003H14.8367V17.492H22.3679V11.0003H24.2984Z" fill="black"/>
<path d="M29.5254 12.5701V17.5132H34.9139V19.1043H29.5254V24.1958H35.5503V25.7869H27.5948V10.979H35.5503V12.5701H29.5254Z" fill="black"/>
<path d="M46.2573 25.7869L42.7356 19.7407H40.402V25.7869H38.4715V11.0003H43.2448C44.3621 11.0003 45.3026 11.1912 46.0663 11.5731C46.8442 11.9549 47.4241 12.4711 47.8059 13.1217C48.1878 13.7723 48.3787 14.5148 48.3787 15.3493C48.3787 16.3676 48.0817 17.2657 47.4877 18.0435C46.9079 18.8214 46.031 19.3376 44.8571 19.5922L48.5697 25.7869H46.2573ZM40.402 18.192H43.2448C44.2914 18.192 45.0763 17.9375 45.5996 17.4283C46.1229 16.905 46.3846 16.212 46.3846 15.3493C46.3846 14.4724 46.1229 13.7935 45.5996 13.3127C45.0905 12.8318 44.3055 12.5914 43.2448 12.5914H40.402V18.192Z" fill="black"/>
<path d="M61.2645 15.3281C61.2645 16.5585 60.8402 17.5839 59.9916 18.4042C59.1572 19.2103 57.8772 19.6134 56.1518 19.6134H53.309V25.7869H51.3785V11.0003H56.1518C57.8207 11.0003 59.0865 11.4033 59.9492 12.2095C60.8261 13.0157 61.2645 14.0552 61.2645 15.3281ZM56.1518 18.0223C57.2267 18.0223 58.0187 17.789 58.5278 17.3222C59.037 16.8555 59.2915 16.1908 59.2915 15.3281C59.2915 13.5036 58.245 12.5914 56.1518 12.5914H53.309V18.0223H56.1518Z" fill="black"/>
</svg>
