<?xml version="1.0" standalone="no"?>
<!DOCTYPE svg PUBLIC "-//W3C//DTD SVG 20010904//EN"
 "http://www.w3.org/TR/2001/REC-SVG-20010904/DTD/svg10.dtd">
<svg version="1.0" xmlns="http://www.w3.org/2000/svg"
 width="260.000000pt" height="260.000000pt" viewBox="0 0 260.000000 260.000000"
 preserveAspectRatio="xMidYMid meet">
<metadata>
Created by potrace 1.14, written by Peter Selinger 2001-2017
</metadata>
<g transform="translate(0.000000,260.000000) scale(0.100000,-0.100000)"
fill="#000000" stroke="none">
<path d="M250 1815 l0 -75 120 0 120 0 2 -377 3 -378 90 0 90 0 3 378 2 377
120 0 120 0 0 75 0 75 -335 0 -335 0 0 -75z"/>
<path d="M1050 1435 l0 -455 240 0 240 0 0 75 0 75 -150 0 -151 0 7 380 7 380
-96 0 -97 0 0 -455z"/>
<path d="M1640 1608 c0 -156 3 -361 7 -455 l6 -173 89 0 88 0 0 174 0 174 133
4 c111 3 140 7 182 26 106 48 165 139 165 252 0 111 -52 194 -155 249 -49 26
-53 26 -282 29 l-233 3 0 -283z m391 122 c57 -16 84 -52 84 -114 0 -105 -45
-136 -195 -136 l-90 0 0 130 0 130 83 0 c45 0 98 -5 118 -10z"/>
<path d="M390 720 l0 -60 55 0 55 0 0 60 0 60 -55 0 -55 0 0 -60z"/>
<path d="M730 720 l0 -60 115 0 115 0 0 60 0 60 -115 0 -115 0 0 -60z"/>
<path d="M1190 720 l0 -60 110 0 110 0 0 60 0 60 -110 0 -110 0 0 -60z"/>
<path d="M1640 720 l0 -60 115 0 115 0 0 60 0 60 -115 0 -115 0 0 -60z"/>
<path d="M2100 720 l0 -60 60 0 60 0 0 60 0 60 -60 0 -60 0 0 -60z"/>
</g>
</svg>
