<svg width="760" height="315" viewBox="0 0 760 315" fill="none" xmlns="http://www.w3.org/2000/svg">
<path fill-rule="evenodd" clip-rule="evenodd" d="M0 315H760V42.4747L759.484 41.9466C756.055 38.4398 752.618 34.9243 749.664 31.132C746.207 26.6962 743.52 21.8237 740.835 16.9547C737.57 11.0344 734.307 5.11914 729.668 -3.05176e-05C728.514 1.98145 727.618 4.20463 726.708 6.46021L726.708 6.4603C726.28 7.52249 725.849 8.59189 725.386 9.64667C724.257 12.2253 722.945 14.7173 721.003 16.7933C718.812 19.134 716.14 20.2499 713.414 21.3881C710.622 22.5541 707.774 23.7435 705.329 26.2973C700.886 25.0973 696.946 26.1 693.11 27.1026L692.974 27.1384C688.196 28.3887 683.573 29.5985 678.336 26.4986C675.703 24.9398 673.743 21.7459 671.887 18.7236C668.38 13.0108 665.249 7.91107 658.667 15.6266C658.427 14.8159 657.711 13.7728 656.929 12.6356L656.929 12.6355C655.84 11.0496 654.624 9.28045 654.401 7.70264C649.05 9.66943 645.002 15.6932 641.085 21.522L641.085 21.5224C638.53 25.3232 636.032 29.0412 633.264 31.4973C629.87 34.5093 626.86 37.344 624.048 40.2573C619.872 44.5866 616.132 49.1013 612.223 54.6426C611.72 55.3573 611.215 56.0826 610.704 56.8306C608.758 59.6891 606.791 62.9689 604.757 66.3601L604.757 66.3605L604.756 66.3609C600.153 74.0344 595.209 82.2776 589.403 87.4973C585.407 91.0889 581.737 92.9586 578.382 94.668L578.382 94.668C576.797 95.476 575.281 96.2481 573.835 97.1493C570.233 99.3933 567.06 102.437 564.297 108.831L563.73 110.144C558.3 122.727 557.063 125.592 545.635 134.496C541.952 137.365 539.325 141.202 536.727 144.996C533.539 149.651 530.396 154.241 525.403 156.9C521.664 158.89 517.69 159.553 513.706 160.217C507.929 161.181 502.132 162.147 497.003 167.168C491.873 172.189 488.164 176.216 484.329 180.381C482.613 182.246 480.871 184.137 478.964 186.159C477.564 187.643 476.919 189.248 476.28 190.842C475.431 192.958 474.59 195.053 472 196.823C470.548 197.816 468.22 198.236 465.74 198.685C463.169 199.149 460.434 199.644 458.339 200.836C456.354 201.965 455.125 203.567 453.892 205.174C452.39 207.131 450.882 209.096 447.996 210.228C445.481 211.214 442.416 211.071 439.303 210.926C438.29 210.879 437.272 210.831 436.267 210.823C434.311 210.805 432.401 210.935 430.667 211.497C425.94 213.032 422.301 215.276 419.333 217.969C414.224 222.606 411.121 228.589 407.974 234.659C405.242 239.928 402.476 245.261 398.335 249.836C391.285 257.623 390.29 256.885 386.982 254.433C385.081 253.024 382.417 251.049 377.403 249.799C370.727 248.134 366.317 250.578 361.718 253.127C358.693 254.804 355.586 256.526 351.699 257.153C350.509 257.345 349.119 256.571 347.751 255.797L347.694 255.765C346.36 255.009 345.049 254.266 343.969 254.435C343.051 254.577 342.123 255.237 341.23 255.872C340.336 256.508 339.478 257.118 338.7 257.16C337.439 257.229 336.498 258.104 335.537 258.998C334.515 259.948 333.471 260.919 331.996 260.96C330.154 261.009 328.634 259.521 327.208 258.124C326.018 256.959 324.894 255.858 323.703 255.768C318.304 255.357 313.421 256.073 308.587 256.789L308.517 256.8C303.988 257.471 299.499 258.136 294.663 257.872C293.048 257.784 291.411 257.576 289.758 257.365H289.758C287.661 257.098 285.537 256.828 283.393 256.795C281.924 256.771 280.448 256.849 278.964 257.128C277.593 257.385 275.897 258.373 274.131 259.401C271.529 260.917 268.778 262.52 266.703 261.993C263.032 261.062 257.121 254.527 251.756 248.595C248.245 244.714 244.968 241.09 242.703 239.462C239.41 237.095 235.983 234.298 232.488 231.446C228.126 227.886 223.658 224.239 219.212 221.233C220.197 221.968 216.192 219.917 212.769 217.865C209.652 215.999 207.017 214.131 209.068 214.365C204.374 213.826 202.131 215.89 199.724 218.105C198.225 219.486 196.661 220.925 194.401 221.829C191.664 222.924 189.535 223.075 187.42 223.225C185.17 223.385 182.935 223.544 180 224.836C178.53 225.483 176.819 227.096 174.994 228.817C171.883 231.751 168.441 234.997 165.303 234.29L165.024 234.188C162.511 233.363 160.413 229.218 158.477 225.391C157.274 223.015 156.134 220.761 154.995 219.502C151.564 215.709 148.933 214.901 145.994 213.997C144.196 213.444 142.283 212.856 140 211.528C136.842 209.69 134.504 206.914 132.201 204.18C128.141 199.359 124.189 194.667 116.037 195.464C112.46 195.813 109.057 198.781 105.885 202.176C104.856 203.278 103.85 204.425 102.871 205.542L102.871 205.542L102.87 205.543L102.864 205.55L102.862 205.553C99.2833 209.636 96.0541 213.32 93.264 212.961C92.92 212.838 92.5734 212.716 92.228 212.593C88.3467 204.592 76.8907 184.308 70.6667 201.996C69.9703 201.248 68.7029 200.678 67.4334 200.107C66.2477 199.574 65.0604 199.041 64.3347 198.36C58.4235 205.151 54.5148 212.55 50.6593 219.849C45.6583 229.316 40.7468 238.614 31.6707 246.195C27.5052 249.674 22.387 250.753 17.2505 251.836C13.1288 252.705 8.99536 253.577 5.33337 255.693C3.52271 256.741 1.75732 258.272 0 259.983V315Z" fill="white"/>
</svg>
